<svg xmlns="http://www.w3.org/2000/svg" width="48" height="14" viewBox="0 0 48 14">
    <path fill="#000" fill-rule="nonzero" d="M0 1.346a.223.223 0 0 1 .218-.224h2.856c2.329 0 4.217 1.862 4.217 4.158 0 2.297-1.888 4.159-4.217 4.159H.218A.223.223 0 0 1 0 9.212V1.346zm2.934 6.646a2.682 2.682 0 0 0 1.948-.788 2.605 2.605 0 0 0 .759-1.936 2.6 2.6 0 0 0-.763-1.928 2.678 2.678 0 0 0-1.944-.782H1.555v5.434h1.38zm9.685-6.99a4.354 4.354 0 0 1 3.845 2.108 4.227 4.227 0 0 1 0 4.338 4.354 4.354 0 0 1-3.845 2.109 4.33 4.33 0 0 1-3.067-1.242A4.208 4.208 0 0 1 8.294 5.29 4.229 4.229 0 0 1 9.55 2.257a4.352 4.352 0 0 1 3.068-1.256zm0 7.012a2.774 2.774 0 0 0 2.572-1.682 2.706 2.706 0 0 0-.598-2.984 2.802 2.802 0 0 0-3.027-.592A2.733 2.733 0 0 0 9.86 5.29c.01 1.5 1.24 2.713 2.76 2.724zm5.92-6.798a.226.226 0 0 1 .23-.215h.303l5.012 5.253h.013V1.346a.243.243 0 0 1 .23-.227h1.102c.123.009.22.106.228.227v7.999a.224.224 0 0 1-.228.212h-.29l-5.033-5.453v5.108a.228.228 0 0 1-.23.227H18.77a.243.243 0 0 1-.23-.227V1.216zm8.22 7.914l3.749-7.999a.22.22 0 0 1 .205-.13h.12a.206.206 0 0 1 .205.13L34.75 9.13a.207.207 0 0 1-.01.215.214.214 0 0 1-.195.094h-1.047a.347.347 0 0 1-.35-.242l-.591-1.282h-3.604l-.59 1.282a.362.362 0 0 1-.35.242h-1.048a.214.214 0 0 1-.196-.094.207.207 0 0 1-.01-.215zm5.208-2.531l-1.205-2.616h-.037L29.545 6.6h2.422zm4.568-4.053H34.69a.243.243 0 0 1-.23-.226v-.964a.243.243 0 0 1 .23-.227h5.267a.243.243 0 0 1 .23.227v.964a.243.243 0 0 1-.23.226h-1.844v6.666a.243.243 0 0 1-.23.227h-1.12a.243.243 0 0 1-.23-.227V2.546zm3.352 6.584l3.748-7.999a.218.218 0 0 1 .203-.13h.123a.208.208 0 0 1 .205.13l3.712 7.999a.207.207 0 0 1-.008.211.214.214 0 0 1-.19.098h-1.05a.347.347 0 0 1-.349-.242l-.59-1.282h-3.61l-.592 1.282a.36.36 0 0 1-.348.242H40.1a.214.214 0 0 1-.194-.096.207.207 0 0 1-.01-.213h-.009zm5.216-2.531l-1.206-2.616h-.034L42.679 6.6h2.424zM.179 11.652a.036.036 0 0 1 .007-.03.037.037 0 0 1 .027-.014h.07c.021.001.037.018.037.039v1.19H.85c.02.002.036.019.036.04v.055c0 .02-.016.036-.036.036H.213a.036.036 0 0 1-.034-.036v-1.28zm1.821 0a.038.038 0 0 1 .009-.03.04.04 0 0 1 .028-.014h.073c.02.003.035.02.034.039v1.28c0 .019-.014.035-.034.036h-.073A.036.036 0 0 1 2 12.927v-1.275zm1.44 0c0-.01.003-.02.01-.027a.037.037 0 0 1 .025-.012h.733c.02.001.037.018.037.039v.055c0 .02-.017.036-.037.036h-.626v.53h.528c.02.002.035.018.035.037v.057c0 .02-.015.035-.035.037h-.528v.528c0 .02-.016.036-.036.036h-.071a.036.036 0 0 1-.035-.036v-1.28zm1.966 0c0-.01.003-.02.01-.027a.037.037 0 0 1 .024-.012h.734c.01 0 .019.005.025.012.007.007.01.017.01.027v.055c0 .019-.016.035-.035.036h-.626v.482h.528c.02.002.034.017.034.036v.058c0 .02-.015.035-.034.036h-.528v.483h.619c.01 0 .018.005.025.012.006.007.01.017.009.026v.056c0 .019-.015.034-.034.036h-.734a.036.036 0 0 1-.034-.036l.007-1.28zm1.93 1.113l.029-.038c.017-.024.039-.039.063-.017a.492.492 0 0 0 .31.147.23.23 0 0 0 .169-.055.223.223 0 0 0 .076-.157c0-.133-.11-.212-.322-.306-.213-.094-.326-.179-.326-.4a.353.353 0 0 1 .125-.247.363.363 0 0 1 .267-.084.593.593 0 0 1 .315.097.048.048 0 0 1 0 .067l-.022.036a.042.042 0 0 1-.064.02.476.476 0 0 0-.244-.092.227.227 0 0 0-.17.055.22.22 0 0 0-.075.16c0 .13.093.204.245.272.244.106.408.205.408.429a.364.364 0 0 1-.124.255.375.375 0 0 1-.272.092.583.583 0 0 1-.389-.169c0-.017-.026-.017 0-.065zm2.16-1.022h-.32a.036.036 0 0 1-.034-.036v-.055c0-.01.003-.02.01-.027a.037.037 0 0 1 .025-.012h.78c.01 0 .018.005.025.012.006.007.01.017.009.027v.055c0 .019-.015.035-.034.036h-.32v1.189c0 .019-.016.034-.035.036h-.066a.036.036 0 0 1-.034-.036l-.005-1.189zm1.937.574l-.43-.646a.036.036 0 0 1-.003-.038.037.037 0 0 1 .032-.02h.086a.042.042 0 0 1 .03.02l.371.54.372-.54a.041.041 0 0 1 .017-.025h.088c.014 0 .026.008.033.02a.036.036 0 0 1-.004.038l-.45.644v.617c0 .019-.015.035-.034.036h-.073a.036.036 0 0 1-.035-.036v-.61zm1.7-.665c0-.02.016-.038.036-.04h.071c.02.003.035.02.035.04v1.186h.53c.01 0 .019.005.025.012.007.007.01.017.01.026v.056c0 .019-.016.034-.035.036h-.636a.036.036 0 0 1-.036-.036v-1.28zm1.824 0c0-.01.002-.02.009-.027a.037.037 0 0 1 .025-.012h.734c.01 0 .018.005.025.012.006.007.01.017.009.027v.055c0 .019-.015.035-.034.036h-.626v.482h.528c.02.002.034.017.034.036v.058c0 .02-.015.035-.034.036h-.528v.483h.618a.036.036 0 0 1 .034.039v.055c0 .019-.014.034-.034.036h-.733a.036.036 0 0 1-.035-.036l.008-1.28zm3.218.01a.033.033 0 0 1 .002-.034.034.034 0 0 1 .03-.015h.078a.036.036 0 0 1 .031.029l.245 1 .328-1.034a.032.032 0 0 1 .029-.022h.034a.04.04 0 0 1 .032.022l.313 1.027.244-1a.037.037 0 0 1 .044-.027h.079c.012 0 .023.006.03.016.006.01.008.021.004.032l-.35 1.3a.034.034 0 0 1-.032.026h-.029a.037.037 0 0 1-.032-.021l-.318-1.047-.313 1.047a.034.034 0 0 1-.031.021h-.03a.034.034 0 0 1-.031-.026l-.357-1.295zm2.692-.01c0-.02.014-.037.034-.04h.073c.01.002.02.006.025.013.007.007.01.017.01.027v1.28c0 .019-.015.034-.035.036h-.073a.036.036 0 0 1-.034-.036v-1.28zm1.628.091h-.328a.034.034 0 0 1-.025-.01.033.033 0 0 1-.009-.026v-.055c0-.01.003-.02.01-.027a.037.037 0 0 1 .024-.012h.78a.036.036 0 0 1 .034.039v.055c0 .019-.014.035-.034.036h-.32v1.189c0 .019-.015.034-.034.036h-.071a.036.036 0 0 1-.034-.036l.007-1.189zm1.609-.091c0-.02.015-.037.034-.04h.069c.01.002.018.006.025.013.006.007.01.017.009.027v.564h.733v-.564c0-.02.016-.038.037-.04h.071c.01.002.019.006.025.013.007.007.01.017.01.027v1.28c0 .019-.016.034-.035.036h-.07a.036.036 0 0 1-.038-.036v-.586h-.733v.586c0 .019-.015.034-.034.036h-.074a.036.036 0 0 1-.034-.036l.005-1.28zm2.893-.044c.289-.019.56.139.685.397a.69.69 0 0 1-.123.774.714.714 0 0 1-.775.173.697.697 0 0 1-.448-.647.68.68 0 0 1 .66-.697zm0 1.256a.57.57 0 0 0 .552-.321.556.556 0 0 0-.1-.624.575.575 0 0 0-.626-.137.562.562 0 0 0-.36.523.55.55 0 0 0 .534.56zm1.855-1.212c0-.02.015-.037.035-.04h.07c.01.002.02.006.026.013.006.007.01.017.009.027v.805a.351.351 0 0 0 .087.272.362.362 0 0 0 .262.12.357.357 0 0 0 .261-.118.346.346 0 0 0 .087-.27v-.81c0-.02.016-.037.036-.038h.069c.02.001.036.018.036.039v.817a.486.486 0 0 1-.489.482.486.486 0 0 1-.489-.482v-.817zm2.426.091h-.32a.036.036 0 0 1-.035-.036v-.055c0-.01.003-.02.01-.027a.037.037 0 0 1 .025-.012h.78c.01 0 .018.005.025.012.006.007.01.017.009.027v.055c0 .019-.015.035-.034.036h-.32v1.189c0 .019-.016.034-.035.036h-.07a.036.036 0 0 1-.035-.036v-1.189zm2.954-.091c-.001-.01.003-.02.012-.027a.062.062 0 0 1 .036-.012h.567a.638.638 0 0 1 .375.098c.1.067.157.161.154.259-.003.127-.1.244-.254.31.185.05.308.175.31.314.002.104-.058.203-.165.274a.673.673 0 0 1-.4.1h-.587a.06.06 0 0 1-.036-.011c-.009-.007-.013-.016-.012-.025v-1.28zm.656 1.186c.19 0 .344-.108.344-.242 0-.066-.04-.13-.109-.176a.44.44 0 0 0-.259-.065h-.426v.483h.45zm-.041-.615a.383.383 0 0 0 .23-.073c.06-.046.088-.107.08-.168.014-.063-.012-.126-.072-.173a.368.368 0 0 0-.238-.068h-.423v.482h.423zm2.01-.615c.29-.02.562.137.687.395a.69.69 0 0 1-.12.775.714.714 0 0 1-.775.174.697.697 0 0 1-.45-.647.667.667 0 0 1 .183-.483.686.686 0 0 1 .476-.214zm0 1.256a.571.571 0 0 0 .554-.32.556.556 0 0 0-.098-.624.575.575 0 0 0-.626-.139.562.562 0 0 0-.36.524.55.55 0 0 0 .53.56zm1.867-1.212c0-.01.003-.02.012-.027a.054.054 0 0 1 .032-.012h.634c.292.005.524.19.519.412-.004.176-.148.333-.364.396l.316.482c.01.01.01.024.002.036a.05.05 0 0 1-.04.02h-.12a.053.053 0 0 1-.041-.018l-.317-.513h-.456v.494c0 .019-.02.035-.044.036h-.092c-.025-.001-.044-.017-.044-.036l.003-1.27zm.633.658c.201 0 .364-.124.364-.278 0-.153-.163-.277-.364-.277h-.434v.555h.434zm1.5-.658c0-.01.004-.02.01-.027a.043.043 0 0 1 .029-.012h.458c.398.03.704.324.704.677 0 .354-.306.648-.704.678h-.458c-.021-.002-.038-.017-.038-.036v-1.28zm.464 1.183c.34 0 .616-.244.616-.545 0-.3-.276-.544-.616-.544h-.308v1.09h.308zm1.83-1.183c0-.02.016-.038.037-.04h.734c.01.002.018.006.025.013.006.007.01.017.009.027v.055c0 .019-.015.035-.034.036h-.619v.482h.528c.02.002.034.017.034.036v.058c0 .02-.015.035-.034.036h-.528v.483h.619c.01 0 .018.005.025.012.006.007.01.017.009.026v.056c0 .019-.015.034-.034.036h-.734a.036.036 0 0 1-.037-.036v-1.28zm2.012 0c0-.01.004-.02.012-.027a.055.055 0 0 1 .033-.012h.622c.295.005.53.19.524.412-.003.174-.144.33-.358.396l.32.482c.009.01.01.024.001.036a.05.05 0 0 1-.04.02h-.124a.052.052 0 0 1-.039-.018l-.319-.513h-.46v.494c0 .019-.019.035-.044.036H45.2c-.026-.001-.045-.017-.045-.036l.01-1.27zm.655.658c.202 0 .367-.124.367-.278 0-.153-.165-.277-.367-.277h-.466v.555h.466zm1.395.455l.027-.038c.02-.024.039-.039.066-.017a.492.492 0 0 0 .31.147.23.23 0 0 0 .168-.055.223.223 0 0 0 .077-.157c0-.133-.11-.212-.323-.306-.213-.094-.323-.179-.323-.4a.35.35 0 0 1 .12-.256.36.36 0 0 1 .271-.087.593.593 0 0 1 .316.096.048.048 0 0 1 0 .068l-.022.036c-.017.027-.034.034-.064.02a.493.493 0 0 0-.244-.092.227.227 0 0 0-.17.055.22.22 0 0 0-.075.16c0 .13.096.204.245.272.244.106.408.205.408.429a.367.367 0 0 1-.126.255.377.377 0 0 1-.273.092.574.574 0 0 1-.386-.157c-.015-.014-.034-.029 0-.065h-.002z"/>
</svg>
